<svg width="1440" height="1467" viewBox="0 0 1440 1467" fill="none" xmlns="http://www.w3.org/2000/svg">
<g filter="url(#filter0_f_428_37)">
<path d="M1859 294.795C1859 473.183 1714.39 617.795 1536 617.795C1357.61 617.795 1213 473.183 1213 294.795C1213 116.407 1357.61 -28.2048 1536 -28.2048C1714.39 -28.2048 1859 116.407 1859 294.795Z" fill="#A1F345"/>
</g>
<g filter="url(#filter1_f_428_37)">
<path d="M339 964C339 1142.39 194.388 1287 16 1287C-162.388 1287 -307 1142.39 -307 964C-307 785.612 -162.388 641 16 641C194.388 641 339 785.612 339 964Z" fill="#A1F345"/>
</g>
<defs>
<filter id="filter0_f_428_37" x="813" y="-428.205" width="1446" height="1446" filterUnits="userSpaceOnUse" color-interpolation-filters="sRGB">
<feFlood flood-opacity="0" result="BackgroundImageFix"/>
<feBlend mode="normal" in="SourceGraphic" in2="BackgroundImageFix" result="shape"/>
<feGaussianBlur stdDeviation="200" result="effect1_foregroundBlur_428_37"/>
</filter>
<filter id="filter1_f_428_37" x="-487" y="461" width="1006" height="1006" filterUnits="userSpaceOnUse" color-interpolation-filters="sRGB">
<feFlood flood-opacity="0" result="BackgroundImageFix"/>
<feBlend mode="normal" in="SourceGraphic" in2="BackgroundImageFix" result="shape"/>
<feGaussianBlur stdDeviation="90" result="effect1_foregroundBlur_428_37"/>
</filter>
</defs>
</svg>
