<svg width="283" height="65" viewBox="0 0 283 65" fill="none" xmlns="http://www.w3.org/2000/svg">
<path d="M282.5 64.5L195.5 0.5H87" stroke="white" stroke-linecap="round"/>
<rect y="8" width="38" height="17" rx="8.5" fill="white" fill-opacity="0.25"/>
<path d="M25.3536 16.3536C25.5488 16.1583 25.5488 15.8417 25.3536 15.6464L22.1716 12.4645C21.9763 12.2692 21.6597 12.2692 21.4645 12.4645C21.2692 12.6597 21.2692 12.9763 21.4645 13.1716L24.2929 16L21.4645 18.8284C21.2692 19.0237 21.2692 19.3403 21.4645 19.5355C21.6597 19.7308 21.9763 19.7308 22.1716 19.5355L25.3536 16.3536ZM13 16.5L25 16.5L25 15.5L13 15.5L13 16.5Z" fill="white"/>
</svg>
