<svg width="352" height="51" viewBox="0 0 352 51" fill="none" xmlns="http://www.w3.org/2000/svg">
<path d="M0.99999 50H191.706L284 2" stroke="white" stroke-linecap="round"/>
<rect width="39" height="17" rx="8.5" transform="matrix(-1 0 0 1 352 0)" fill="white" fill-opacity="0.25"/>
<path d="M328.646 8.35355C328.451 8.15829 328.451 7.84171 328.646 7.64645L331.828 4.46447C332.024 4.2692 332.34 4.2692 332.536 4.46447C332.731 4.65973 332.731 4.97631 332.536 5.17157L329.707 8L332.536 10.8284C332.731 11.0237 332.731 11.3403 332.536 11.5355C332.34 11.7308 332.024 11.7308 331.828 11.5355L328.646 8.35355ZM341 8.5L329 8.5L329 7.5L341 7.5L341 8.5Z" fill="white"/>
</svg>
